<svg width="226" height="47" viewBox="0 0 226 47" fill="none" xmlns="http://www.w3.org/2000/svg">
<path d="M10.944 45.44H21.12V0.639999H11.2L11.072 2.24001C10.816 5.95201 9.088 7.68 5.312 7.872L0 8.12801V16.32H10.944V45.44ZM52.5095 46.08C66.4615 46.08 76.8935 36.224 76.8935 23.04C76.8935 9.92 66.4615 0 52.5095 0C38.5575 0 28.125 9.92 28.125 23.04C28.125 36.224 38.5575 46.08 52.5095 46.08ZM52.5095 36.544C44.7655 36.544 39.3255 30.976 39.3255 23.04C39.3255 15.168 44.7655 9.60001 52.5095 9.60001C60.2535 9.60001 65.6935 15.168 65.6935 23.04C65.6935 30.976 60.2535 36.544 52.5095 36.544ZM106.572 46.08C120.523 46.08 130.955 36.224 130.955 23.04C130.955 9.92 120.523 0 106.572 0C92.6195 0 82.1875 9.92 82.1875 23.04C82.1875 36.224 92.6195 46.08 106.572 46.08ZM106.572 36.544C98.8275 36.544 93.3875 30.976 93.3875 23.04C93.3875 15.168 98.8275 9.60001 106.572 9.60001C114.316 9.60001 119.755 15.168 119.755 23.04C119.755 30.976 114.316 36.544 106.572 36.544ZM160.634 46.08C174.586 46.08 185.018 36.224 185.018 23.04C185.018 9.92 174.586 0 160.634 0C146.682 0 136.251 9.92 136.251 23.04C136.251 36.224 146.682 46.08 160.634 46.08ZM160.634 36.544C152.89 36.544 147.451 30.976 147.451 23.04C147.451 15.168 152.89 9.60001 160.634 9.60001C168.378 9.60001 173.818 15.168 173.818 23.04C173.818 30.976 168.378 36.544 160.634 36.544ZM225.839 19.264H213.551V7.104H204.783V19.264H192.559V28.16H204.783V40.32H213.551V28.16H225.839V19.264Z" fill="#050038"/>
</svg>
