<svg width="172" height="47" viewBox="0 0 172 47" fill="none" xmlns="http://www.w3.org/2000/svg">
<path d="M10.944 45.44H21.12V0.639999H11.2L11.072 2.24001C10.816 5.95201 9.088 7.68 5.312 7.872L0 8.12801V16.32H10.944V45.44ZM52.509 46.08C66.461 46.08 76.893 36.224 76.893 23.04C76.893 9.92 66.461 0 52.509 0C38.557 0 28.125 9.92 28.125 23.04C28.125 36.224 38.557 46.08 52.509 46.08ZM52.509 36.544C44.765 36.544 39.325 30.976 39.325 23.04C39.325 15.168 44.765 9.60001 52.509 9.60001C60.253 9.60001 65.693 15.168 65.693 23.04C65.693 30.976 60.253 36.544 52.509 36.544ZM106.572 46.08C120.524 46.08 130.956 36.224 130.956 23.04C130.956 9.92 120.524 0 106.572 0C92.62 0 82.188 9.92 82.188 23.04C82.188 36.224 92.62 46.08 106.572 46.08ZM106.572 36.544C98.828 36.544 93.388 30.976 93.388 23.04C93.388 15.168 98.828 9.60001 106.572 9.60001C114.316 9.60001 119.756 15.168 119.756 23.04C119.756 30.976 114.316 36.544 106.572 36.544ZM171.777 19.264H159.489V7.104H150.721V19.264H138.497V28.16H150.721V40.32H159.489V28.16H171.777V19.264Z" fill="#050038"/>
</svg>
