<svg width="182" height="46" viewBox="0 0 182 46" fill="none" xmlns="http://www.w3.org/2000/svg">
<path d="M41.3437 17.152H29.3757V3.2H18.9437V17.152H10.4317V0H0V25.344H18.7517V44.8H29.3757V25.344H41.3437V17.152ZM66.1747 13.696C62.1427 13.696 58.8147 14.848 56.2547 16.96L56.6387 8.96001H79.2947V0H48.1907L47.4867 25.024H57.7267C59.1987 23.168 61.3107 22.272 63.8707 22.272C68.2867 22.272 71.3587 24.96 71.3587 29.312C71.3587 33.536 68.4147 36.416 63.8707 36.416C59.3267 36.416 56.2547 33.6 56.0627 28.864H45.1187C44.9907 38.848 52.6067 45.44 63.6787 45.44C74.8147 45.44 82.3027 38.784 82.3027 29.056C82.3027 19.776 75.5827 13.696 66.1747 13.696ZM90.1507 44.8H100.327V10.752L100.711 10.688L110.055 40.96H119.335L128.743 10.688L129.127 10.752V44.8H139.303V0H123.175L114.855 29.952H114.599L106.279 0H90.1507V44.8ZM181.39 18.624H169.102V6.464H160.334V18.624H148.11V27.52H160.334V39.68H169.102V27.52H181.39V18.624Z" fill="#050038"/>
</svg>
