<svg width="146" height="47" viewBox="0 0 146 47" fill="none" xmlns="http://www.w3.org/2000/svg">
<path d="M18.816 0C7.616 0 0 6.97601 0 16.768C0 25.984 6.784 32.448 15.936 32.448C17.28 32.448 18.432 32.256 19.52 31.936L7.168 45.44H19.328L30.208 32.64C32.96 29.376 37.696 23.872 37.696 16.448C37.696 6.84801 30.016 0 18.816 0ZM18.88 24.64C14.272 24.64 11.072 21.504 11.072 16.896C11.072 12.288 14.336 9.152 18.88 9.152C23.552 9.152 26.688 12.352 26.688 16.896C26.688 21.44 23.552 24.64 18.88 24.64ZM61.566 0C50.366 0 42.75 6.97601 42.75 16.768C42.75 25.984 49.534 32.448 58.686 32.448C60.03 32.448 61.182 32.256 62.27 31.936L49.918 45.44H62.078L72.958 32.64C75.71 29.376 80.446 23.872 80.446 16.448C80.446 6.84801 72.766 0 61.566 0ZM61.63 24.64C57.022 24.64 53.822 21.504 53.822 16.896C53.822 12.288 57.086 9.152 61.63 9.152C66.302 9.152 69.438 12.352 69.438 16.896C69.438 21.44 66.302 24.64 61.63 24.64ZM98.824 24.128C105.992 24.128 111.368 18.944 111.368 12.096C111.368 5.184 105.992 0 98.824 0C91.656 0 86.344 5.184 86.344 12.096C86.344 18.944 91.656 24.128 98.824 24.128ZM94.344 45.44H104.712L137.608 0.639999H127.176L94.344 45.44ZM98.824 16.448C96.392 16.448 94.664 14.656 94.664 12.096C94.664 9.472 96.392 7.68 98.824 7.68C101.32 7.68 103.048 9.472 103.048 12.096C103.048 14.656 101.32 16.448 98.824 16.448ZM133.064 46.08C140.232 46.08 145.608 40.96 145.608 34.048C145.608 27.2 140.232 22.016 133.064 22.016C125.96 22.016 120.584 27.2 120.584 34.048C120.584 40.96 125.96 46.08 133.064 46.08ZM133.064 38.464C130.632 38.464 128.904 36.608 128.904 34.048C128.904 31.488 130.632 29.632 133.064 29.632C135.56 29.632 137.288 31.488 137.288 34.048C137.288 36.608 135.56 38.464 133.064 38.464Z" fill="#050038"/>
</svg>
