<svg width="113" height="47" viewBox="0 0 113 47" fill="none" xmlns="http://www.w3.org/2000/svg">
<path d="M0 45.44H10.624V0.639999H0V45.44ZM39.346 46.08C51.57 46.08 59.058 39.936 59.058 30.592C59.058 22.912 54.194 18.496 45.042 17.344L36.722 16.256C34.482 15.936 31.73 15.168 31.73 12.352C31.73 9.728 34.034 8.064 37.362 8.064C41.074 8.064 43.378 9.728 44.146 13.056L55.474 12.992C54.834 4.992 47.986 0 37.746 0C27.314 0 21.042 5.24801 21.042 13.504C21.042 20.352 25.266 24.32 33.65 25.408L42.802 26.56C45.298 26.944 47.922 27.84 47.922 31.232C47.922 35.008 44.722 37.248 39.538 37.248C33.138 37.248 29.298 33.856 28.914 27.776H16.882C17.33 38.272 25.522 46.08 39.346 46.08ZM87.659 46.08C101.611 46.08 112.043 36.224 112.043 23.04C112.043 9.92 101.611 0 87.659 0C73.707 0 63.275 9.92 63.275 23.04C63.275 36.224 73.707 46.08 87.659 46.08ZM87.659 36.544C79.915 36.544 74.475 30.976 74.475 23.04C74.475 15.168 79.915 9.60001 87.659 9.60001C95.403 9.60001 100.843 15.168 100.843 23.04C100.843 30.976 95.403 36.544 87.659 36.544Z" fill="#050038"/>
</svg>
