<svg width="75" height="45" viewBox="0 0 75 45" fill="none" xmlns="http://www.w3.org/2000/svg">
<path d="M47.424 18.112V9.984H37.248L37.376 0H28.928L28.736 9.984H19.072L19.2 0H10.688L10.56 9.984H0V18.112H10.432L10.304 26.752H0V34.88H10.176L10.048 44.8H18.56L18.688 34.88H28.416L28.288 44.8H36.736L36.864 34.88H47.424V26.752H36.992L37.12 18.112H47.424ZM28.544 26.752H18.816L18.944 18.112H28.672L28.544 26.752ZM64.036 44.8H74.212V0H64.292L64.164 1.60001C63.908 5.31201 62.18 7.04 58.404 7.232L53.092 7.48801V15.68H64.036V44.8Z" fill="#050038"/>
</svg>
