<?xml version="1.0" encoding="UTF-8"?>
<svg id="_Слой_1" data-name="Слой_1" xmlns="http://www.w3.org/2000/svg" version="1.1" viewBox="0 0 27 26">
  <!-- Generator: Adobe Illustrator 30.0.0, SVG Export Plug-In . SVG Version: 2.1.1 Build 123)  -->
  <defs>
    <style>
      .st0 {
        fill: #470137;
      }

      .st1 {
        fill: #ff61f6;
      }
    </style>
  </defs>
  <path class="st0" d="M4.78-.06h17.44c2.64,0,4.78,2.12,4.78,4.75v16.64c0,2.62-2.14,4.75-4.78,4.75H4.78c-2.64,0-4.78-2.12-4.78-4.75V4.68C0,2.06,2.14-.06,4.78-.06Z"/>
  <path class="st1" d="M13.6,7.03l-3.45,5.72,3.68,6.07s.03.09.02.14c-.01.05-.06.01-.13.02h-2.63c-.18,0-.31-.01-.39-.13-.24-.49-.49-.96-.74-1.44-.24-.47-.51-.96-.78-1.46-.28-.5-.55-.99-.83-1.5h-.02c-.24.5-.51.99-.77,1.49-.26.5-.53.99-.78,1.48-.26.49-.53.98-.79,1.46-.05.12-.14.13-.26.13h-2.53s-.08.02-.08-.03c-.01-.05,0-.09.02-.13l3.58-5.89-3.49-5.93s-.05-.09-.02-.12c.02-.03.07-.05.12-.05h2.61c.06,0,.12.01.16.02.05.02.08.06.12.1.22.5.47.99.74,1.49.28.5.54.98.83,1.47.28.49.53.97.77,1.47h.02c.24-.51.49-1.01.75-1.49.25-.49.52-.97.78-1.46.26-.49.52-.98.77-1.46.01-.05.03-.09.07-.12.05-.02.09-.03.15-.02h2.43c.06-.01.12.02.13.08.01.01-.01.06-.03.08Z"/>
  <path class="st1" d="M20.62,19.01c-.81.01-1.62-.15-2.35-.5-.69-.32-1.26-.85-1.65-1.5-.41-.67-.6-1.51-.6-2.51-.01-.81.2-1.62.6-2.32.42-.72,1.02-1.31,1.74-1.71.77-.43,1.69-.64,2.77-.64.05,0,.13,0,.23.01.1.01.21.01.34.02v-3.48c0-.08.03-.12.11-.12h2.22c.05-.01.1.03.11.08v10.5c0,.2.01.42.02.66.02.23.03.45.04.64,0,.08-.03.14-.11.18-.57.24-1.17.42-1.79.53-.56.1-1.12.15-1.69.15ZM21.7,16.81v-4.84c-.1-.02-.2-.04-.3-.06-.12-.01-.24-.02-.36-.02-.43,0-.85.09-1.24.29-.37.19-.69.46-.93.81-.24.35-.36.83-.36,1.4-.01.39.05.77.19,1.13.11.3.27.56.49.78.21.2.46.35.74.44.3.1.6.14.91.14.16,0,.32-.01.46-.02.14.01.26-.01.39-.05Z"/>
</svg>